<?xml version="1.0" encoding="UTF-8" standalone="no"?>
<!-- Created with Inkscape (http://www.inkscape.org/) -->

<svg
   xmlns:osb="http://www.openswatchbook.org/uri/2009/osb"
   xmlns:dc="http://purl.org/dc/elements/1.1/"
   xmlns:cc="http://creativecommons.org/ns#"
   xmlns:rdf="http://www.w3.org/1999/02/22-rdf-syntax-ns#"
   xmlns:svg="http://www.w3.org/2000/svg"
   xmlns="http://www.w3.org/2000/svg"
   xmlns:xlink="http://www.w3.org/1999/xlink"
   xmlns:sodipodi="http://sodipodi.sourceforge.net/DTD/sodipodi-0.dtd"
   xmlns:inkscape="http://www.inkscape.org/namespaces/inkscape"
   width="1600px"
   height="1200px"
   id="svg2993"
   version="1.1"
   inkscape:version="0.48.2 r9819"
   sodipodi:docname="logo.svg">
  <defs
     id="defs2995">
    <linearGradient
       id="linearGradient4436">
      <stop
         style="stop-color:#000000;stop-opacity:1"
         offset="0"
         id="stop4438" />
      <stop
         style="stop-color:#ffffff;stop-opacity:1;"
         offset="1"
         id="stop4440" />
    </linearGradient>
    <linearGradient
       id="linearGradient4422">
      <stop
         id="stop4424"
         offset="0"
         style="stop-color:#000000;stop-opacity:1" />
      <stop
         id="stop4426"
         offset="1"
         style="stop-color:#ffffff;stop-opacity:1;" />
    </linearGradient>
    <linearGradient
       id="linearGradient4382">
      <stop
         style="stop-color:#000000;stop-opacity:1;"
         offset="0"
         id="stop4384" />
      <stop
         style="stop-color:#ffffff;stop-opacity:1;"
         offset="1"
         id="stop4386" />
    </linearGradient>
    <linearGradient
       id="linearGradient4376"
       osb:paint="solid">
      <stop
         style="stop-color:#ff0066;stop-opacity:1;"
         offset="0"
         id="stop4378" />
    </linearGradient>
    <linearGradient
       id="linearGradient4210">
      <stop
         style="stop-color:#000000;stop-opacity:1;"
         offset="0"
         id="stop4212" />
      <stop
         id="stop4226"
         offset="0.64104164"
         style="stop-color:#646464;stop-opacity:0.99215686;" />
      <stop
         style="stop-color:#b1b1b1;stop-opacity:0.78823531;"
         offset="0.90499997"
         id="stop4278" />
      <stop
         style="stop-color:#ffffff;stop-opacity:0.86666667;"
         offset="1"
         id="stop4214" />
    </linearGradient>
    <linearGradient
       id="linearGradient4153">
      <stop
         id="stop4155"
         offset="0"
         style="stop-color:#000000;stop-opacity:1;" />
      <stop
         style="stop-color:#000000;stop-opacity:0.74901961;"
         offset="0"
         id="stop4108" />
      <stop
         style="stop-color:#000000;stop-opacity:0.49803922;"
         offset="0.50167179"
         id="stop4106" />
      <stop
         id="stop4110"
         offset="0.76851851"
         style="stop-color:#000000;stop-opacity:0.24705882;" />
      <stop
         id="stop4157"
         offset="1"
         style="stop-color:#ffffff;stop-opacity:0;" />
    </linearGradient>
    <linearGradient
       id="linearGradient3845">
      <stop
         id="stop3847"
         offset="0"
         style="stop-color:#ffffff;stop-opacity:1;" />
      <stop
         style="stop-color:#ffffff;stop-opacity:0.51764709;"
         offset="0.54497564"
         id="stop3855" />
      <stop
         style="stop-color:#000000;stop-opacity:0.3137255;"
         offset="1"
         id="stop3853" />
    </linearGradient>
    <linearGradient
       id="linearGradient3917">
      <stop
         id="stop3919"
         offset="0"
         style="stop-color:#ffffff;stop-opacity:1;" />
      <stop
         style="stop-color:#fbf4ab;stop-opacity:0.89803922;"
         offset="0.37132728"
         id="stop3933" />
      <stop
         style="stop-color:#f7ea58;stop-opacity:0.8018018;"
         offset="0.44525513"
         id="stop3927" />
      <stop
         id="stop3931"
         offset="0.48864326"
         style="stop-color:#ffcf3e;stop-opacity:1;" />
      <stop
         style="stop-color:#fbdc4b;stop-opacity:0.89803922;"
         offset="0.60949355"
         id="stop3935" />
      <stop
         id="stop3921"
         offset="1"
         style="stop-color:#f7ea58;stop-opacity:0.80000001;" />
    </linearGradient>
    <filter
       id="filter4360"
       inkscape:label="Drop shadow"
       width="1.5"
       height="1.5"
       x="-.25"
       y="-.25">
      <feGaussianBlur
         id="feGaussianBlur4362"
         in="SourceAlpha"
         stdDeviation="5"
         result="blur" />
      <feColorMatrix
         id="feColorMatrix4364"
         result="bluralpha"
         type="matrix"
         values="1 0 0 0 0 0 1 0 0 0 0 0 1 0 0 0 0 0 0.5 0 " />
      <feOffset
         id="feOffset4366"
         in="bluralpha"
         dx="10"
         dy="-2"
         result="offsetBlur" />
      <feMerge
         id="feMerge4368">
        <feMergeNode
           id="feMergeNode4370"
           in="offsetBlur" />
        <feMergeNode
           id="feMergeNode4372"
           in="SourceGraphic" />
      </feMerge>
    </filter>
    <linearGradient
       inkscape:collect="always"
       xlink:href="#linearGradient4436"
       id="linearGradient4446"
       gradientUnits="userSpaceOnUse"
       gradientTransform="matrix(1.3784179,0,0,1.3784179,-302.36751,-1686.0622)"
       x1="799.03064"
       y1="832.95874"
       x2="799.03064"
       y2="543.37463" />
    <mask
       maskUnits="userSpaceOnUse"
       id="mask4442">
      <rect
         style="fill:url(#linearGradient4446);fill-opacity:1;stroke:#000000;stroke-width:3.44604468;stroke-linecap:round;stroke-linejoin:round;stroke-miterlimit:4;stroke-opacity:1;stroke-dasharray:none"
         id="rect4444"
         width="2157.3108"
         height="331.39413"
         x="-279.62479"
         y="-759.72827"
         transform="scale(1,-1)" />
    </mask>
    <radialGradient
       inkscape:collect="always"
       xlink:href="#linearGradient4153"
       id="radialGradient3061"
       gradientUnits="userSpaceOnUse"
       gradientTransform="matrix(1,0,0,0.37850906,0,547.62379)"
       cx="602.23065"
       cy="881.14526"
       fx="602.23065"
       fy="881.14526"
       r="338.02661" />
    <linearGradient
       inkscape:collect="always"
       xlink:href="#linearGradient3917"
       id="linearGradient3063"
       gradientUnits="userSpaceOnUse"
       x1="447.29767"
       y1="482.31076"
       x2="635.94464"
       y2="666.91846" />
    <radialGradient
       inkscape:collect="always"
       xlink:href="#linearGradient3845"
       id="radialGradient3065"
       gradientUnits="userSpaceOnUse"
       gradientTransform="matrix(2.0298481,0,0,1.0447342,-605.42819,-53.065565)"
       cx="566.62646"
       cy="259.56921"
       fx="566.62646"
       fy="259.56921"
       r="178.55891" />
    <radialGradient
       inkscape:collect="always"
       xlink:href="#linearGradient3845"
       id="radialGradient3067"
       gradientUnits="userSpaceOnUse"
       gradientTransform="matrix(1.9035457,0,0,0.99317002,-314.52239,-52.009948)"
       cx="328.83426"
       cy="397.0379"
       fx="328.83426"
       fy="397.0379"
       r="161.05853" />
    <radialGradient
       inkscape:collect="always"
       xlink:href="#linearGradient3845"
       id="radialGradient3069"
       gradientUnits="userSpaceOnUse"
       gradientTransform="matrix(1.9715968,0,0,0.99658493,130.09015,-53.954685)"
       cx="328.83426"
       cy="397.0379"
       fx="328.83426"
       fy="397.0379"
       r="161.05853" />
    <radialGradient
       inkscape:collect="always"
       xlink:href="#linearGradient4153"
       id="radialGradient3100"
       gradientUnits="userSpaceOnUse"
       gradientTransform="matrix(1,0,0,0.37850906,0,547.62379)"
       cx="602.23065"
       cy="881.14526"
       fx="602.23065"
       fy="881.14526"
       r="338.02661" />
    <linearGradient
       inkscape:collect="always"
       xlink:href="#linearGradient3917"
       id="linearGradient3102"
       gradientUnits="userSpaceOnUse"
       x1="447.29767"
       y1="482.31076"
       x2="635.94464"
       y2="666.91846" />
    <radialGradient
       inkscape:collect="always"
       xlink:href="#linearGradient3845"
       id="radialGradient3104"
       gradientUnits="userSpaceOnUse"
       gradientTransform="matrix(2.0298481,0,0,1.0447342,-605.42819,-53.065565)"
       cx="566.62646"
       cy="259.56921"
       fx="566.62646"
       fy="259.56921"
       r="178.55891" />
    <radialGradient
       inkscape:collect="always"
       xlink:href="#linearGradient3845"
       id="radialGradient3106"
       gradientUnits="userSpaceOnUse"
       gradientTransform="matrix(1.9035457,0,0,0.99317002,-314.52239,-52.009948)"
       cx="328.83426"
       cy="397.0379"
       fx="328.83426"
       fy="397.0379"
       r="161.05853" />
    <radialGradient
       inkscape:collect="always"
       xlink:href="#linearGradient3845"
       id="radialGradient3108"
       gradientUnits="userSpaceOnUse"
       gradientTransform="matrix(1.9715968,0,0,0.99658493,130.09015,-53.954685)"
       cx="328.83426"
       cy="397.0379"
       fx="328.83426"
       fy="397.0379"
       r="161.05853" />
  </defs>
  <sodipodi:namedview
     id="base"
     pagecolor="#ffffff"
     bordercolor="#666666"
     borderopacity="1.0"
     inkscape:pageopacity="0.0"
     inkscape:pageshadow="2"
     inkscape:zoom="0.84852814"
     inkscape:cx="557.09803"
     inkscape:cy="511.56471"
     inkscape:current-layer="text3001"
     inkscape:document-units="px"
     showgrid="false"
     inkscape:window-width="1440"
     inkscape:window-height="805"
     inkscape:window-x="0"
     inkscape:window-y="0"
     inkscape:window-maximized="1"
     inkscape:snap-bbox="true"
     inkscape:bbox-paths="false"
     inkscape:bbox-nodes="true"
     inkscape:snap-bbox-edge-midpoints="true"
     inkscape:snap-bbox-midpoints="false"
     inkscape:snap-nodes="false" />
  <metadata
     id="metadata2998">
    <rdf:RDF>
      <cc:Work
         rdf:about="">
        <dc:format>image/svg+xml</dc:format>
        <dc:type
           rdf:resource="http://purl.org/dc/dcmitype/StillImage" />
        <dc:title />
      </cc:Work>
    </rdf:RDF>
  </metadata>
  <g
     id="layer1"
     inkscape:label="Layer 1"
     inkscape:groupmode="layer">
    <use
       x="0"
       y="0"
       xlink:href="#g4142"
       id="use4312"
       transform="matrix(1,0,0,-1,0,1202)"
       width="1600"
       height="1200"
       mask="url(#mask4442)" />
    <g
       id="g4142"
       style="filter:url(#filter4360)"
       transform="translate(0,-62.15215)">
      <g
         transform="matrix(0.20722538,0,0,0.20722538,451.8973,438.18463)"
         id="g3929">
        <g
           id="layer5"
           inkscape:label="Shadow"
           style="display:inline">
          <path
             transform="matrix(1.4934024,0,0,1.0858861,-385.68809,-78.197406)"
             style="opacity:0.9182692;fill:url(#radialGradient3100);fill-opacity:1;fill-rule:nonzero;stroke:none"
             d="m 932.75726,881.14526 c 0,66.52057 -147.9818,120.44614 -330.52661,120.44614 -182.5448,0 -330.52661,-53.92557 -330.52661,-120.44614 0,-66.52056 147.98181,-120.44613 330.52661,-120.44613 182.54481,0 330.52661,53.92557 330.52661,120.44613 z"
             id="path4151" />
        </g>
        <g
           style="display:inline"
           inkscape:label="Lightning"
           id="g3897">
          <path
             style="fill:url(#linearGradient3102);fill-opacity:1;stroke:#ecb700;stroke-width:20;stroke-linecap:square;stroke-linejoin:round;stroke-miterlimit:4;stroke-opacity:1;stroke-dasharray:none;display:inline"
             d="m 651.21875,470.4375 -0.5625,0.0312 C 573.65129,537.3594 495.64957,520.34823 448.4375,482.25 l -1.125,0.0625 c -22.52083,82.77083 -66.59375,243.59375 -66.59375,243.59375 l 108.53125,-14 -84.71875,234.5625 L 693.75,597.0625 l -117.65625,14 c 27.10417,-48.28125 75.125,-140.625 75.125,-140.625 z"
             id="path3899"
             inkscape:connector-curvature="0" />
        </g>
        <g
           style="display:inline"
           inkscape:label="Cloud"
           id="g3065">
          <path
             style="fill:#ffffff;fill-opacity:1;stroke:#999999;stroke-width:20;stroke-linecap:butt;stroke-linejoin:miter;stroke-miterlimit:4;stroke-opacity:1;stroke-dasharray:none;display:inline"
             d="m 653.78125,467.7187 c 32.15392,31.93138 76.42033,51.6875 125.3125,51.6875 98.23386,0 177.875,-79.64114 177.875,-177.875 0,-98.23386 -79.64114,-177.875 -177.875,-177.875 -10.27301,0 -20.32862,0.89049 -30.125,2.5625 C 722.71089,78.423945 641.33623,14.4062 545,14.4062 c -96.64603,0 -178.23261,64.425986 -204.21875,152.65625 -9.83904,-1.68715 -19.92959,-2.59375 -30.25,-2.59375 -98.23386,0 -177.875,79.64114 -177.875,177.875 0,98.23386 79.64114,177.875 177.875,177.875 48.83946,0 93.04835,-19.69183 125.1875,-51.5625 2.80221,3.63019 5.78581,7.11522 8.9375,10.4375 47.36719,40.79643 129.01612,60.6164 209.125,-11.375 z"
             id="path3206"
             inkscape:connector-curvature="0"
             sodipodi:nodetypes="cssscscsssccc" />
          <path
             style="fill:url(#radialGradient3104);fill-opacity:1;stroke:none"
             d="m 544.75,31.6875 c -93.97676,0 -171.91549,67.777839 -186.40625,156.53125 l 371.96875,0.4375 3.25,30.4375 c 0.002,-0.32342 0,-0.64494 0,-0.96875 0,-102.96842 -84.52723,-186.4375 -188.8125,-186.4375 z m -186.5,157.09375 c -1.07691,6.72763 -1.79754,13.58462 -2.125,20.53125 l 2.125,-20.53125 z"
             id="path3069"
             inkscape:connector-curvature="0" />
          <path
             style="fill:url(#radialGradient3106);fill-opacity:1;stroke:none"
             d="m 311.4375,182.46875 c -88.28779,0 -159.875,71.55596 -159.875,159.84375 0,4.40551 0.18165,8.7783 0.53125,13.09375 l 318.78125,-1.875 c 0.25676,-3.70497 0.40625,-7.44854 0.40625,-11.21875 0,-88.28779 -71.55596,-159.84375 -159.84375,-159.84375 z"
             id="path3071"
             inkscape:connector-curvature="0" />
          <path
             style="fill:url(#radialGradient3108);fill-opacity:1;stroke:none"
             d="M 778.40625,181.3125 C 689.81489,181.3125 618,253.12739 618,341.71875 c 0,0.1873 -6.4e-4,0.37535 0,0.5625 l 320.78125,2.625 c 0.0205,-1.0567 0.0312,-2.12588 0.0312,-3.1875 0,-88.59136 -71.81489,-160.40625 -160.40625,-160.40625 z"
             id="path3075"
             inkscape:connector-curvature="0" />
        </g>
      </g>
      <g
         style="font-size:40px;font-style:normal;font-weight:normal;line-height:125%;letter-spacing:0px;word-spacing:0px;fill:#b3b3b3;fill-opacity:1;stroke:#000000;stroke-width:2.5;stroke-miterlimit:4;stroke-opacity:1;filter:url(#filter4108);font-family:Sans"
         id="text3001">
        <path
           d="m 57.104492,571.17187 5.712891,0 0,-7.20703 c -1.6e-5,-7.49989 0.937483,-13.44715 2.8125,-17.84179 1.933573,-4.45301 5.156226,-7.67566 9.667969,-9.66797 4.570279,-2.05065 10.810507,-3.07604 18.720703,-3.07617 14.003845,1.3e-4 21.005795,3.42786 21.005855,10.2832 -6e-5,2.22668 -0.73249,4.13098 -2.19726,5.71289 -1.46491,1.58214 -3.19342,2.37316 -5.18555,2.37305 -0.93756,1.1e-4 -2.54889,-0.17567 -4.83398,-0.52735 -2.28521,-0.35145 -4.218805,-0.52723 -5.800784,-0.52734 -4.335984,1.1e-4 -7.119184,1.28917 -8.349609,3.86719 -1.23051,2.51964 -1.845744,6.15244 -1.845704,10.89843 l 0,5.71289 5.888672,0 c 9.140575,10e-5 13.710875,2.754 13.710935,8.26172 -6e-5,3.92587 -1.23052,6.4161 -3.6914,7.47071 -2.4024,1.05476 -5.742241,1.5821 -10.019535,1.58203 l -5.888672,0 0,63.54492 c -4e-5,4.7461 -1.142617,8.37891 -3.427734,10.89844 -2.226597,2.46093 -5.126985,3.6914 -8.701172,3.6914 -3.398462,0 -6.240256,-1.23047 -8.52539,-3.6914 -2.22658,-2.51953 -3.33986,-6.15234 -3.339844,-10.89844 l 0,-63.54492 -6.591797,0 c -3.574225,7e-5 -6.328128,-0.79094 -8.261719,-2.37305 -1.933593,-1.64054 -2.900389,-3.74992 -2.90039,-6.32812 1e-6,-5.7421 4.013669,-8.61319 12.041015,-8.61329"
           style="stroke:#3333ff;stroke-opacity:1;fill:#c9c9c9;fill-opacity:1"
           id="path3888" />
        <path
           d="m 121.26465,652.03125 0,-104.0625 c -1e-5,-4.80457 1.05467,-8.43738 3.16406,-10.89844 2.16795,-2.46081 5.06834,-3.69127 8.70117,-3.6914 3.63279,1.3e-4 6.56247,1.23059 8.78907,3.6914 2.22652,2.40247 3.3398,6.03528 3.33984,10.89844 l 0,104.0625 c -4e-5,4.86329 -1.14261,8.52539 -3.42774,10.98633 -2.22659,2.40234 -5.12698,3.60351 -8.70117,3.60351 -3.51564,0 -6.38673,-1.25976 -8.61328,-3.77929 -2.16798,-2.51953 -3.25196,-6.12304 -3.25195,-10.81055"
           style="stroke:#3333ff;stroke-opacity:1;fill:#c9c9c9;fill-opacity:1"
           id="path3890" />
        <path
           d="m 194.12598,582.68555 0,69.3457 c -4e-5,4.8047 -1.14262,8.4375 -3.42774,10.89844 -2.28518,2.46093 -5.18557,3.6914 -8.70117,3.6914 -3.51565,0 -6.38674,-1.25976 -8.61328,-3.77929 -2.16798,-2.51953 -3.25197,-6.12304 -3.25195,-10.81055 l 0,-68.64258 c -2e-5,-4.74601 1.08397,-8.32022 3.25195,-10.72265 2.22654,-2.40225 5.09763,-3.60342 8.61328,-3.60352 3.5156,10e-5 6.41599,1.20127 8.70117,3.60352 2.28512,2.40243 3.4277,5.74227 3.42774,10.01953 m -11.86524,-24.78516 c -3.33986,1.1e-4 -6.21095,-1.02528 -8.61328,-3.07617 -2.34376,-2.05067 -3.51564,-4.95106 -3.51562,-8.70117 -2e-5,-3.39832 1.20115,-6.18152 3.60351,-8.34961 2.46092,-2.22644 5.30271,-3.33972 8.52539,-3.33985 3.10544,1.3e-4 5.85935,0.99623 8.26172,2.98828 2.40231,1.99232 3.60348,4.89271 3.60352,8.70118 -4e-5,3.69152 -1.17191,6.59191 -3.51563,8.70117 -2.34378,2.05089 -5.12698,3.07628 -8.34961,3.07617"
           style="stroke:#3333ff;stroke-opacity:1;fill:#c9c9c9;fill-opacity:1"
           id="path3892" />
        <path
           d="m 305.04395,636.91406 c -10e-5,2.98831 -0.90831,6.18166 -2.72461,9.58008 -1.75791,3.39845 -4.48252,6.6504 -8.17383,9.75586 -3.6329,3.04688 -8.2325,5.50782 -13.79883,7.38281 -5.56647,1.875 -11.836,2.8125 -18.80859,2.8125 -14.82426,0 -26.39652,-4.30664 -34.7168,-12.91992 -8.32033,-8.67185 -12.48048,-20.27341 -12.48047,-34.80469 -1e-5,-9.84369 1.90429,-18.54485 5.71289,-26.10351 3.80858,-7.55852 9.31638,-13.38859 16.52344,-17.49024 7.20699,-4.16006 15.82027,-6.24014 25.83984,-6.24023 6.21088,9e-5 11.89447,0.9083 17.05078,2.72461 5.21477,1.8165 9.6093,4.16024 13.1836,7.03125 3.63272,2.87117 6.38662,5.94734 8.26172,9.22851 1.93349,3.22273 2.90029,6.24031 2.90039,9.05274 -1e-4,2.87116 -1.08408,5.30279 -3.25196,7.29492 -2.10946,1.99225 -4.68759,2.98834 -7.73437,2.98828 -1.99227,6e-5 -3.66219,-0.49799 -5.00977,-1.49414 -1.28914,-1.05463 -2.75398,-2.72455 -4.39453,-5.00977 -2.92976,-4.45305 -6.00593,-7.79289 -9.22851,-10.01953 -3.16413,-2.22648 -7.2071,-3.33976 -12.12891,-3.33984 -7.08989,8e-5 -12.80278,2.78328 -17.13867,8.34961 -4.33597,5.50788 -6.50394,13.06646 -6.50391,22.67578 -3e-5,4.51176 0.55661,8.67191 1.66992,12.48047 1.11325,3.75003 2.72458,6.97268 4.83399,9.66797 2.10933,2.63674 4.65816,4.65822 7.64648,6.06445 2.98823,1.34767 6.26948,2.0215 9.84375,2.02149 4.80463,10e-6 8.90619,-1.11327 12.30469,-3.33985 3.45696,-2.22654 6.50383,-5.62497 9.14062,-10.19531 1.46477,-2.69528 3.0468,-4.80465 4.7461,-6.32813 1.69913,-1.5234 3.77921,-2.28511 6.24023,-2.28515 2.9296,4e-5 5.36124,1.11332 7.29492,3.33984 1.9335,2.2266 2.9003,4.59964 2.9004,7.11914"
           style="stroke:#3333ff;stroke-opacity:1;fill:#c9c9c9;fill-opacity:1"
           id="path3894" />
        <path
           d="m 378.95996,655.63477 -21.18164,-34.80469 -13.00781,12.30469 0,19.07226 c -4e-5,4.62892 -1.23051,8.20313 -3.69141,10.72266 -2.40237,2.46093 -5.18557,3.6914 -8.34961,3.6914 -3.69143,0 -6.59181,-1.23047 -8.70117,-3.6914 -2.10939,-2.46094 -3.16408,-6.09374 -3.16406,-10.89844 l 0,-102.30469 c -2e-5,-5.33191 1.02537,-9.37487 3.07617,-12.1289 2.05076,-2.81237 4.98045,-4.21862 8.78906,-4.21875 3.69138,1.3e-4 6.62106,1.25989 8.78906,3.77929 2.16794,2.51966 3.25192,6.24036 3.25196,11.16211 l 0,58.1836 26.98242,-28.30079 c 3.33978,-3.51553 5.8886,-5.91787 7.64648,-7.20703 1.75774,-1.28896 3.89641,-1.93349 6.41602,-1.93359 2.9882,10e-5 5.47843,0.96689 7.4707,2.90039 1.9921,1.87509 2.98819,4.24814 2.98828,7.11914 -9e-5,3.51571 -3.25204,8.2032 -9.75586,14.0625 l -12.74414,11.68945 24.60938,38.67188 c 1.81631,2.87111 3.10537,5.06837 3.86719,6.5918 0.82021,1.46485 1.23037,2.8711 1.23047,4.21875 -10e-5,3.8086 -1.05479,6.82617 -3.16407,9.05273 -2.05087,2.16797 -4.77548,3.25195 -8.17383,3.25195 -2.92977,0 -5.18562,-0.79101 -6.76757,-2.37304 -1.58211,-1.58203 -3.72078,-4.45312 -6.41602,-8.61328"
           style="stroke:#3333ff;stroke-opacity:1;fill:#c9c9c9;fill-opacity:1"
           id="path3896" />
        <path
           d="m 446.37207,631.99219 0,20.03906 c -4e-5,4.86329 -1.14261,8.52539 -3.42773,10.98633 -2.28519,2.40234 -5.18558,3.60351 -8.70118,3.60351 -3.45705,0 -6.29884,-1.23047 -8.52539,-3.6914 -2.22657,-2.46094 -3.33985,-6.09374 -3.33984,-10.89844 l 0,-66.79688 c -10e-6,-10.78116 3.89647,-16.17177 11.68945,-16.17187 3.98435,10e-5 6.85544,1.25986 8.61328,3.7793 1.75778,2.51962 2.72458,6.24032 2.90039,11.16211 2.87106,-4.92179 5.80074,-8.64249 8.78907,-11.16211 3.04682,-2.51944 7.08979,-3.7792 12.1289,-3.7793 5.039,10e-5 9.93158,1.25986 14.67774,3.7793 4.74602,2.51962 7.11906,5.85946 7.11914,10.01953 -8e-5,2.92976 -1.02547,5.3614 -3.07617,7.29492 -1.99226,1.87507 -4.16023,2.81257 -6.50391,2.8125 -0.87897,7e-5 -3.01764,-0.52727 -6.41602,-1.58203 -3.3399,-1.11321 -6.29888,-1.66985 -8.87695,-1.66992 -3.51567,7e-5 -6.38676,0.93757 -8.61328,2.8125 -2.2266,1.81647 -3.95512,4.54108 -5.18555,8.17382 -1.2305,3.63288 -2.08011,7.96881 -2.54882,13.00782 -0.46879,4.98051 -0.70317,11.07426 -0.70313,18.28125"
           style="stroke:#ff0066"
           id="path3898" />
        <path
           d="m 702.0459,652.91016 0,-2.37305 c -3.22273,3.69142 -6.41609,6.70899 -9.58008,9.05273 -3.10553,2.28516 -6.50397,4.01368 -10.19531,5.18555 -3.63287,1.23047 -7.61724,1.8457 -11.95313,1.8457 -5.74223,0 -11.07425,-1.20117 -15.99609,-3.60351 -4.86331,-2.46094 -9.08205,-5.94726 -12.65625,-10.45899 -3.57423,-4.5117 -6.29884,-9.81443 -8.17383,-15.9082 -1.81641,-6.09372 -2.72462,-12.68551 -2.72461,-19.77539 -1e-5,-14.99994 3.6621,-26.68938 10.98633,-35.06836 7.32419,-8.37881 16.96286,-12.56826 28.91602,-12.56836 6.914,10e-5 12.74408,1.20127 17.49023,3.60352 4.74602,2.34384 9.37493,5.97664 13.88672,10.89843 l 0,-35.41992 c -8e-5,-4.92175 0.96672,-8.64245 2.90039,-11.16211 1.9921,-2.5194 4.8046,-3.77916 8.4375,-3.77929 3.63272,1.3e-4 6.41592,1.172 8.34961,3.51562 1.99209,2.28528 2.98818,5.68372 2.98828,10.19531 l 0,105.82032 c -10e-5,4.57032 -1.05479,7.99805 -3.16406,10.2832 -2.10947,2.28515 -4.83408,3.42773 -8.17383,3.42773 -3.28134,0 -6.00594,-1.17187 -8.17383,-3.51562 -2.10945,-2.40234 -3.16414,-5.80078 -3.16406,-10.19531 m -47.19727,-35.24414 c -3e-5,6.50394 0.99606,12.04105 2.98828,16.61132 2.05075,4.57034 4.83395,8.02737 8.34961,10.3711 3.51558,2.28517 7.35347,3.42775 11.51368,3.42773 4.21869,2e-5 8.05657,-1.08397 11.51367,-3.25195 3.51555,-2.22654 6.29875,-5.59568 8.34961,-10.10742 2.1093,-4.57028 3.16398,-10.25387 3.16406,-17.05078 -8e-5,-6.38667 -1.05476,-11.86518 -3.16406,-16.43555 -2.05086,-4.62884 -4.86335,-8.14446 -8.4375,-10.54688 -3.51569,-2.46086 -7.38287,-3.69133 -11.60157,-3.6914 -4.39458,7e-5 -8.32035,1.25984 -11.77734,3.77929 -3.45707,2.46101 -6.15238,6.03523 -8.08594,10.72266 -1.87503,4.62897 -2.81253,10.01958 -2.8125,16.17188"
           style="stroke:#3333ff;stroke-opacity:1;fill:#c9c9c9;fill-opacity:1"
           id="path3900" />
        <path
           d="m 838.62793,617.8418 c -10e-5,7.14847 -1.11338,13.74026 -3.33984,19.77539 -2.22666,6.03517 -5.44932,11.22072 -9.66797,15.55664 -4.21884,4.33594 -9.2579,7.67578 -15.11719,10.01953 -5.85944,2.28515 -12.45123,3.42773 -19.77539,3.42773 -7.26567,0 -13.79887,-1.17187 -19.59961,-3.51562 -5.80081,-2.34375 -10.83987,-5.68359 -15.11719,-10.01953 -4.21876,-4.39452 -7.44142,-9.55076 -9.66797,-15.46875 -2.16797,-5.97653 -3.25196,-12.56832 -3.25195,-19.77539 -10e-6,-7.26557 1.11327,-13.91596 3.33984,-19.95118 2.22655,-6.03508 5.41991,-11.19132 9.58008,-15.46875 4.16013,-4.27725 9.19919,-7.5585 15.11719,-9.84375 5.91793,-2.34365 12.45112,-3.51552 19.59961,-3.51562 7.26556,10e-5 13.85735,1.17197 19.77539,3.51562 5.91789,2.34384 10.98624,5.68368 15.20508,10.01954 4.21865,4.33601 7.41201,9.49226 9.58008,15.46875 2.22646,5.97662 3.33974,12.56841 3.33984,19.77539 m -24.08203,0 c -8e-5,-9.7851 -2.16805,-17.40228 -6.50391,-22.85157 -4.27741,-5.44914 -10.04889,-8.17375 -17.31445,-8.17382 -4.68755,7e-5 -8.81841,1.23054 -12.39258,3.6914 -3.57426,2.40242 -6.32816,5.97663 -8.26172,10.72266 -1.93362,4.74615 -2.90042,10.28325 -2.90039,16.61133 -3e-5,6.26957 0.93747,11.74808 2.8125,16.43554 1.93356,4.68753 4.65817,8.29104 8.17383,10.81055 3.57417,2.46096 7.76362,3.69142 12.56836,3.69141 7.26556,10e-6 13.03704,-2.72459 17.31445,-8.17383 4.33586,-5.50778 6.50383,-13.09567 6.50391,-22.76367"
           style="stroke:#3333ff;stroke-opacity:1;fill:#c9c9c9;fill-opacity:1"
           id="path3902" />
        <path
           d="m 872.37793,584.00391 15.64453,53.61328 14.23828,-49.83399 c 1.52338,-5.21476 2.63666,-8.75968 3.33985,-10.63476 0.76165,-1.93351 2.13861,-3.74991 4.13086,-5.44922 2.05071,-1.75772 4.83391,-2.63662 8.3496,-2.63672 3.57415,10e-5 6.35735,0.879 8.34961,2.63672 2.0507,1.69931 3.48625,3.57431 4.30664,5.625 0.82023,1.99227 1.96281,5.4786 3.42774,10.45898 l 14.23828,49.83399 15.82031,-53.61328 c 1.05457,-3.86711 1.90418,-6.65031 2.54883,-8.34961 0.64441,-1.75773 1.72839,-3.28116 3.25195,-4.57032 1.52332,-1.34756 3.72058,-2.02138 6.5918,-2.02148 2.87096,10e-5 5.36119,0.99619 7.4707,2.98828 2.10924,1.99228 3.16392,4.33603 3.16407,7.03125 -1.5e-4,2.46102 -0.90835,6.18172 -2.72461,11.16211 l -19.59961,57.48047 c -1.69934,4.86329 -3.0177,8.37891 -3.95508,10.54687 -0.93762,2.16798 -2.43175,4.10157 -4.48242,5.80079 -1.9923,1.69921 -4.7462,2.54882 -8.26172,2.54882 -3.63291,0 -6.504,-0.9082 -8.61328,-2.72461 -2.05088,-1.8164 -3.57431,-4.04296 -4.57031,-6.67968 -0.99619,-2.63671 -2.08017,-6.06444 -3.25196,-10.28321 l -13.71094,-46.75781 -13.27148,46.75781 c -1.75787,6.50392 -3.66217,11.42579 -5.71289,14.76563 -2.05083,3.28125 -5.65435,4.92187 -10.81055,4.92187 -2.63676,0 -4.89261,-0.52734 -6.76758,-1.58203 -1.81644,-0.99609 -3.33987,-2.43164 -4.57031,-4.30664 -1.2305,-1.93359 -2.31448,-4.18944 -3.25195,-6.76758 -0.93753,-2.6367 -1.66995,-4.71678 -2.19727,-6.24023 L 852.0752,590.24414 c -1.9336,-5.39054 -2.9004,-9.11124 -2.9004,-11.16211 0,-2.57804 1.02539,-4.89249 3.07618,-6.94336 2.05077,-2.05069 4.5703,-3.07607 7.55859,-3.07617 3.98436,10e-5 6.67967,1.14267 8.08594,3.42773 1.40622,2.22666 2.90036,6.06454 4.48242,11.51368"
           style="stroke:#3333ff;stroke-opacity:1;fill:#c9c9c9;fill-opacity:1"
           id="path3904" />
        <path
           d="m 1025.4834,582.33398 0,2.90039 c 4.2187,-5.56632 8.8183,-9.63858 13.7988,-12.21679 5.039,-2.63663 10.8105,-3.95498 17.3145,-3.95508 6.328,10e-5 11.9823,1.37705 16.9629,4.13086 4.9804,2.75399 8.7011,6.65047 11.1621,11.68945 1.5819,2.92977 2.6073,6.09383 3.0762,9.49219 0.4686,3.3985 0.703,7.73444 0.7031,13.00781 l 0,44.64844 c -10e-5,4.8047 -1.1134,8.4375 -3.3399,10.89844 -2.168,2.46093 -5.0098,3.6914 -8.5254,3.6914 -3.5743,0 -6.4746,-1.25976 -8.7011,-3.77929 -2.2267,-2.51953 -3.3399,-6.12304 -3.3399,-10.81055 l 0,-39.99023 c 0,-7.9101 -1.1133,-13.94525 -3.3398,-18.10547 -2.1681,-4.21868 -6.5333,-6.32805 -13.0957,-6.32813 -4.2774,8e-5 -8.1739,1.28914 -11.6895,3.86719 -3.5156,2.5196 -6.0938,6.00593 -7.7343,10.45898 -1.172,3.57428 -1.7579,10.25396 -1.7579,20.03907 l 0,30.05859 c 0,4.86329 -1.1426,8.52539 -3.4277,10.98633 -2.2266,2.40234 -5.127,3.60351 -8.7012,3.60351 -3.457,0 -6.2988,-1.25976 -8.5254,-3.77929 -2.2265,-2.51953 -3.3398,-6.12304 -3.3398,-10.81055 l 0,-69.3457 c 0,-4.57023 0.9961,-7.96866 2.9883,-10.19532 1.9922,-2.28506 4.7168,-3.42763 8.1738,-3.42773 2.1094,10e-5 4.0137,0.49814 5.7129,1.49414 1.6992,0.99619 3.0468,2.49033 4.043,4.48242 1.0546,1.99228 1.582,4.42392 1.582,7.29492"
           style="stroke:#3333ff;stroke-opacity:1;fill:#c9c9c9;fill-opacity:1"
           id="path3906" />
        <path
           d="m 1112.3193,652.03125 0,-104.0625 c 0,-4.80457 1.0547,-8.43738 3.1641,-10.89844 2.1679,-2.46081 5.0683,-3.69127 8.7012,-3.6914 3.6328,1.3e-4 6.5624,1.23059 8.789,3.6914 2.2266,2.40247 3.3398,6.03528 3.3399,10.89844 l 0,104.0625 c -10e-5,4.86329 -1.1426,8.52539 -3.4278,10.98633 -2.2266,2.40234 -5.1269,3.60351 -8.7011,3.60351 -3.5157,0 -6.3868,-1.25976 -8.6133,-3.77929 -2.168,-2.51953 -3.252,-6.12304 -3.252,-10.81055"
           style="stroke:#3333ff;stroke-opacity:1;fill:#c9c9c9;fill-opacity:1"
           id="path3908" />
        <path
           d="m 1251.0107,617.8418 c -10e-5,7.14847 -1.1133,13.74026 -3.3398,19.77539 -2.2267,6.03517 -5.4493,11.22072 -9.668,15.55664 -4.2188,4.33594 -9.2579,7.67578 -15.1172,10.01953 -5.8594,2.28515 -12.4512,3.42773 -19.7753,3.42773 -7.2657,0 -13.7989,-1.17187 -19.5997,-3.51562 -5.8008,-2.34375 -10.8398,-5.68359 -15.1171,-10.01953 -4.2188,-4.39452 -7.4415,-9.55076 -9.668,-15.46875 -2.168,-5.97653 -3.252,-12.56832 -3.252,-19.77539 0,-7.26557 1.1133,-13.91596 3.3399,-19.95118 2.2265,-6.03508 5.4199,-11.19132 9.5801,-15.46875 4.1601,-4.27725 9.1991,-7.5585 15.1171,-9.84375 5.918,-2.34365 12.4512,-3.51552 19.5997,-3.51562 7.2655,10e-5 13.8573,1.17197 19.7753,3.51562 5.9179,2.34384 10.9863,5.68368 15.2051,10.01954 4.2187,4.33601 7.412,9.49226 9.5801,15.46875 2.2265,5.97662 3.3397,12.56841 3.3398,19.77539 m -24.082,0 c -10e-5,-9.7851 -2.168,-17.40228 -6.5039,-22.85157 -4.2774,-5.44914 -10.0489,-8.17375 -17.3144,-8.17382 -4.6876,7e-5 -8.8185,1.23054 -12.3926,3.6914 -3.5743,2.40242 -6.3282,5.97663 -8.2617,10.72266 -1.9337,4.74615 -2.9005,10.28325 -2.9004,16.61133 -10e-5,6.26957 0.9374,11.74808 2.8125,16.43554 1.9335,4.68753 4.6581,8.29104 8.1738,10.81055 3.5742,2.46096 7.7636,3.69142 12.5684,3.69141 7.2655,10e-6 13.037,-2.72459 17.3144,-8.17383 4.3359,-5.50778 6.5038,-13.09567 6.5039,-22.76367"
           style="stroke:#3333ff;stroke-opacity:1;fill:#c9c9c9;fill-opacity:1"
           id="path3910" />
        <path
           d="m 1330.4639,653.08594 c -5.8009,4.51172 -11.4259,7.91016 -16.875,10.19531 -5.3907,2.22656 -11.4552,3.33984 -18.1934,3.33984 -6.1524,0 -11.5723,-1.20117 -16.2598,-3.60351 -4.6289,-2.46094 -8.2031,-5.77148 -10.7226,-9.93164 -2.5196,-4.16014 -3.7793,-8.67186 -3.7793,-13.53516 0,-6.56247 2.0801,-12.15816 6.2402,-16.78711 4.1602,-4.62886 9.873,-7.73432 17.1387,-9.3164 1.5234,-0.35152 5.3027,-1.14253 11.3379,-2.37305 6.0351,-1.23042 11.1913,-2.3437 15.4687,-3.33985 4.3359,-1.05462 9.0234,-2.31439 14.0625,-3.77929 -0.293,-6.32806 -1.5821,-10.95696 -3.8672,-13.88672 -2.2266,-2.9882 -6.8848,-4.48234 -13.9746,-4.48242 -6.0938,8e-5 -10.6934,0.84968 -13.7988,2.54883 -3.0469,1.69929 -5.6836,4.24811 -7.9101,7.64648 -2.168,3.3985 -3.7208,5.65436 -4.6582,6.76758 -0.879,1.05475 -2.8126,1.58209 -5.8008,1.58203 -2.6954,6e-5 -5.0391,-0.84955 -7.0313,-2.54883 -1.9336,-1.75775 -2.9004,-3.98431 -2.9004,-6.67969 0,-4.21867 1.4942,-8.32023 4.4825,-12.30468 2.9882,-3.98429 7.6464,-7.26554 13.9746,-9.84375 6.328,-2.57803 14.2089,-3.8671 23.6425,-3.86719 10.5468,9e-5 18.8379,1.25986 24.8731,3.7793 6.0351,2.46102 10.2831,6.3868 12.7441,11.77734 2.5195,5.3907 3.7792,12.53913 3.7793,21.44531 -10e-5,5.62505 -0.029,10.40044 -0.088,14.32617 -10e-5,3.92583 -0.029,8.29106 -0.088,13.09571 -10e-5,4.51174 0.7324,9.22853 2.1973,14.15039 1.5233,4.86329 2.2851,7.99805 2.2852,9.40429 -10e-5,2.46095 -1.172,4.7168 -3.5157,6.76758 -2.2852,1.99219 -4.8926,2.98828 -7.8222,2.98828 -2.461,0 -4.8927,-1.14258 -7.2949,-3.42773 -2.4025,-2.34375 -4.9513,-5.71288 -7.6465,-10.10742 m -1.5821,-34.7168 c -3.5157,1.28911 -8.6426,2.66606 -15.3808,4.13086 -6.6798,1.40629 -11.3087,2.46098 -13.8867,3.16406 -2.5782,0.64457 -5.0391,1.96293 -7.3829,3.95508 -2.3437,1.93363 -3.5156,4.65823 -3.5156,8.17383 0,3.63283 1.3769,6.7383 4.1309,9.3164 2.7538,2.51955 6.3574,3.77932 10.8105,3.7793 4.7461,2e-5 9.1113,-1.02537 13.0957,-3.07617 4.0429,-2.10936 7.0019,-4.80467 8.877,-8.08594 2.1679,-3.63278 3.2519,-9.60934 3.2519,-17.92969 l 0,-3.42773"
           style="stroke:#3333ff;stroke-opacity:1;fill:#c9c9c9;fill-opacity:1"
           id="path3912" />
        <path
           d="m 1442.4365,652.91016 0,-2.37305 c -3.2227,3.69142 -6.4161,6.70899 -9.5801,9.05273 -3.1055,2.28516 -6.5039,4.01368 -10.1953,5.18555 -3.6328,1.23047 -7.6172,1.8457 -11.9531,1.8457 -5.7422,0 -11.0742,-1.20117 -15.9961,-3.60351 -4.8633,-2.46094 -9.082,-5.94726 -12.6562,-10.45899 -3.5743,-4.5117 -6.2989,-9.81443 -8.1739,-15.9082 -1.8164,-6.09372 -2.7246,-12.68551 -2.7246,-19.77539 0,-14.99994 3.6621,-26.68938 10.9864,-35.06836 7.3241,-8.37881 16.9628,-12.56826 28.916,-12.56836 6.914,10e-5 12.7441,1.20127 17.4902,3.60352 4.746,2.34384 9.3749,5.97664 13.8867,10.89843 l 0,-35.41992 c -10e-5,-4.92175 0.9667,-8.64245 2.9004,-11.16211 1.9921,-2.5194 4.8046,-3.77916 8.4375,-3.77929 3.6327,1.3e-4 6.4159,1.172 8.3496,3.51562 1.9921,2.28528 2.9882,5.68372 2.9883,10.19531 l 0,105.82032 c -10e-5,4.57032 -1.0548,7.99805 -3.1641,10.2832 -2.1094,2.28515 -4.834,3.42773 -8.1738,3.42773 -3.2813,0 -6.0059,-1.17187 -8.1738,-3.51562 -2.1095,-2.40234 -3.1642,-5.80078 -3.1641,-10.19531 m -47.1972,-35.24414 c -10e-5,6.50394 0.996,12.04105 2.9882,16.61132 2.0508,4.57034 4.834,8.02737 8.3496,10.3711 3.5156,2.28517 7.3535,3.42775 11.5137,3.42773 4.2187,2e-5 8.0566,-1.08397 11.5137,-3.25195 3.5155,-2.22654 6.2987,-5.59568 8.3496,-10.10742 2.1093,-4.57028 3.164,-10.25387 3.1641,-17.05078 -10e-5,-6.38667 -1.0548,-11.86518 -3.1641,-16.43555 -2.0509,-4.62884 -4.8633,-8.14446 -8.4375,-10.54688 -3.5157,-2.46086 -7.3829,-3.69133 -11.6016,-3.6914 -4.3945,7e-5 -8.3203,1.25984 -11.7773,3.77929 -3.4571,2.46101 -6.1524,6.03523 -8.0859,10.72266 -1.8751,4.62897 -2.8126,10.01958 -2.8125,16.17188"
           style="stroke:#3333ff;stroke-opacity:1;fill:#c9c9c9;fill-opacity:1"
           id="path3914" />
        <path
           d="m 1513.0127,631.99219 0,20.03906 c 0,4.86329 -1.1426,8.52539 -3.4277,10.98633 -2.2852,2.40234 -5.1856,3.60351 -8.7012,3.60351 -3.4571,0 -6.2989,-1.23047 -8.5254,-3.6914 -2.2266,-2.46094 -3.3399,-6.09374 -3.3398,-10.89844 l 0,-66.79688 c -1e-4,-10.78116 3.8964,-16.17177 11.6894,-16.17187 3.9844,10e-5 6.8554,1.25986 8.6133,3.7793 1.7578,2.51962 2.7246,6.24032 2.9004,11.16211 2.871,-4.92179 5.8007,-8.64249 8.789,-11.16211 3.0469,-2.51944 7.0898,-3.7792 12.1289,-3.7793 5.039,10e-5 9.9316,1.25986 14.6778,3.7793 4.746,2.51962 7.119,5.85946 7.1191,10.01953 -10e-5,2.92976 -1.0254,5.3614 -3.0761,7.29492 -1.9923,1.87507 -4.1603,2.81257 -6.504,2.8125 -0.8789,7e-5 -3.0176,-0.52727 -6.416,-1.58203 -3.3399,-1.11321 -6.2989,-1.66985 -8.8769,-1.66992 -3.5157,7e-5 -6.3868,0.93757 -8.6133,2.8125 -2.2266,1.81647 -3.9551,4.54108 -5.1856,8.17382 -1.2305,3.63288 -2.0801,7.96881 -2.5488,13.00782 -0.4688,4.98051 -0.7031,11.07426 -0.7031,18.28125"
           style="stroke:#ff0066"
           id="path3916" />
      </g>
    </g>
    <rect
       style="fill:none;stroke:none;stroke-width:2.50000000000000000;stroke-linecap:round;stroke-linejoin:round;stroke-miterlimit:4;stroke-opacity:1;stroke-dasharray:none;fill-opacity:1"
       id="rect4448"
       width="1565.063"
       height="320.55508"
       x="17.468506"
       y="351.72247"
       inkscape:export-filename="E:\Hari\Personal\Github\flickr-downloadr-gtk\misc\logo-Small-About.png"
       inkscape:export-xdpi="11.5"
       inkscape:export-ydpi="11.5" />
  </g>
</svg>
